<?xml version="1.0" encoding="utf-8"?>
<!-- Generator: Adobe Illustrator 25.4.1, SVG Export Plug-In . SVG Version: 6.00 Build 0)  -->
<svg version="1.1" id="Capa_1" xmlns="http://www.w3.org/2000/svg" xmlns:xlink="http://www.w3.org/1999/xlink" x="0px" y="0px"
	 viewBox="0 0 532 658.5" style="enable-background:new 0 0 532 658.5;" xml:space="preserve">
<path d="M301.5,74.8c4.8,2.4,8.1,4.4,9.5,11.1c1.8,8.6,0.1,17.8,0.5,26.5c1.6,33.8,11.7,65.9,19.6,98.5c0.7,3.3,4,6,5.8,9.1
	c1.2,2,3.2,5,2.6,6.6c-4.2,9.6,1.3,17.8,4,26l0,0c10.6,29,17.7,59.2,21.1,89.9c2.7,37-6.4,73.9-26.2,105.3
	c-11.9,19.6-28.8,34.6-52.7,39.4c-7.6,1.5-12.6,9-11.1,16.7c1.4,7.5,2.7,14.7,4.4,21.7c3.6,17.2,2.6,19.8-16.7,29.7l0,0
	c-7.7-20-7.3-41.8-11.7-62.1l0,0c-11-3.9-21.8-8.4-32.4-13.3c-32.5-17.2-51.2-45.3-61.9-80c-10.8-33.7-11.6-69.8-2.2-104
	c8.1-33.7,22.3-65.7,41.8-94.4c29.5-41.1,52-83.8,87.6-119.5c4.1-4.1,9.3-7.8,14.9-7.8 M351,334.3c-4.2,3.1-7.2,5-10,7.5l0,0
	c-18.3,16.2-38.6,30-60.5,41.1c-3.7,2-7.3,4.4-10.5,7.2c-1.9,1.6-4.5,4.1-4.5,6.1c-1,9.5-0.3,19.2,2.1,28.5c3.9-1.5,7.5-3.4,11-5.6
	c21.4-16.5,42.4-33.3,64-49.8C354.7,359.8,357.2,349.4,351,334.3L351,334.3z M265.9,378.4c28.3-10.8,50.3-30.2,73.2-48.1
	c13.3-10.5,13.8-12.3,4.6-29c-20,11.8-39.9,23.6-60,35.2c-23,13.3-23,13.3-20,39.9C264,376.9,264.7,377.2,265.9,378.4L265.9,378.4z
	 M243.3,437.5c-1.8-13.3-2.8-21.9-4.4-30.7l0,0c-0.9-3-2.5-5.7-4.8-7.7c-27.5-25.1-50.5-54.8-68-87.7c-0.6-1.3-2.1-2.1-3.6-3.4
	c-4.3,8.1-4.4,17.9-0.4,26.2c16.7,37.5,42.8,68.2,71.5,96.9C236.7,433.3,239.9,435.5,243.3,437.5L243.3,437.5z M353.6,376.5
	c-29.5,21.2-55.8,39.9-81.7,58.8c-2.5,1.9-4,4.7-4.3,7.8c0,6.6,1,13.3,1.8,22.6c6.6-3.7,11.3-5.9,15.5-8.8
	c18.8-13.6,37.6-27.4,56.2-41.3l0,0c1.7-1.3,2.9-3,3.5-5C347.6,400.1,350.3,389.5,353.6,376.5L353.6,376.5z M175.6,269.1
	c-9.1,14.9-9.6,17.9-3.7,30.1c14,28.7,32.2,55,54.1,78.3c3.1,2.6,6.5,4.7,10.1,6.6c0.7-16.6,4-31-11.7-41.3l0,0
	c-5.1-4.5-9.2-10.1-12.2-16.2c-10.2-16.2-20-32.5-30.1-48.7C180,275,177.9,272.3,175.6,269.1L175.6,269.1z M246.8,467.3
	c0-9.5,0-15.4-7.8-19.3l0,0c-5.6-3.1-10.6-7.1-14.9-11.7c-22.2-22.1-41.9-46.5-58.6-72.9c-2-3-4.3-5.9-6.6-8.7
	c0,16.8,3.6,35.4,7.5,40.8c18,23.6,39.3,44.4,63.2,62C235,461.1,240.8,464.4,246.8,467.3L246.8,467.3z M263.5,334
	c29.5-11.9,67.6-35.2,79.3-48.4l-5.5-16.7c-23.9,13.3-46.1,25.2-68.2,37.7l0,0c-2.9,2.1-4.7,5.4-5.2,8.9
	C263.4,321.6,263.3,327.8,263.5,334L263.5,334z M309,162.1c-2.2-11.8-5-23-6.6-34.6s-1.5-22.7-2.2-37.5
	c-16.2,31.9-31.3,92.5-27.2,105.2L309,162.1z M187.4,238c-3.1,3.1-5,7.2-5.4,11.6s0.9,8.8,3.4,12.3c13.7,22.7,27.6,45.4,41.8,67.9
	c1.7,2.6,5,4.2,9.8,8c0-8.8,0.7-14.6,0-20l0,0c-0.3-3.4-1.6-6.7-3.6-9.6c-7.3-10.4-15.4-20-22.5-30.8
	C203.1,264.6,195.8,251.8,187.4,238L187.4,238z M267.7,293.9L267.7,293.9c23.4-9.7,45.6-22.4,65.8-37.7l-6.2-18.6
	c-15.3,8.9-28.7,17.7-43.1,24.3C269.7,268.7,264.2,276.7,267.7,293.9L267.7,293.9z M318.1,207.4c-12.6,7-24.2,13.3-35.8,20
	c-11.5,6.6-13.3,17.2-11.7,32.1c15.2-9.2,28.8-17.2,42.1-25.7C326,225.3,325.4,225.2,318.1,207.4L318.1,207.4z M236.9,296.6
	c4.6-13.3,7.5-23.3-2.8-32.7c-4.1-4.2-7.6-8.9-10.3-14c-7.2-12.1-14-24.4-21.1-36.7l0,0c-3.1,1.3-5.6,3.9-6.5,7.1
	c-1,3.2-0.6,6.7,1.1,9.6c8.9,16.8,18,33.3,27.4,50.1l0,0C228.5,285.7,232.6,291.3,236.9,296.6L236.9,296.6z M279.9,107l-2.2-1.2
	c-9.2,12.1-18.6,24.1-27.7,36.3l0,0c-1.6,2-2.4,4.7-2.1,7.3c1,13.1,4.7,25.7,11,37.1L279.9,107z M241.9,256.7
	c2.8-3.9,4.3-8.6,4.2-13.4c-0.1-4.8-1.6-9.4-4.5-13.3c-5-8.8-9.3-17.9-12.7-27.3c-2.5-5.6-4.5-11.3-7.1-17.9
	c-9.1,6.6-12,13.3-8.2,22.8l0,0C220.5,225.3,230,241.9,241.9,256.7L241.9,256.7z M240.2,158.4c-10.9,11.9-11.5,12.1-8.7,20.4
	c4.4,13.3,9.4,26,14.6,38.8c1,2.4,3.5,4.3,7.7,9C258.8,200.3,239.8,183,240.2,158.4L240.2,158.4z M311.2,173.3
	c-8.5,8.9-14.9,15.1-20.4,21.8c-5.6,6.7-15.6,10.5-15.6,23.3l42-21.8L311.2,173.3z M273.5,477c24.7,0,52.1-20.3,59-42.4L273.5,477z
	 M247.5,482.1l-63.2-46.7l0,0C199.4,458,221.6,474.3,247.5,482.1L247.5,482.1z"/>
</svg>
