<?xml version="1.0" encoding="utf-8"?>
<!-- Generator: Adobe Illustrator 25.4.1, SVG Export Plug-In . SVG Version: 6.00 Build 0)  -->
<svg version="1.1" id="Capa_2_00000127752103573048798900000017322468445142786700_"
	 xmlns="http://www.w3.org/2000/svg" xmlns:xlink="http://www.w3.org/1999/xlink" x="0px" y="0px" viewBox="0 0 532 658.5"
	 style="enable-background:new 0 0 532 658.5;" xml:space="preserve">
<path d="M306,95.3c6.1,2.8,19.2,9.2,36.2,29.4c8.4,11.8,7.1,9.4,11.2,22.3c1.2,6.8,1.1,3.4,9.7,32.6c1,3.9,2.3,8.9,4.6,12.6
	c0.7,3.3,4.5,13,5.1,16.8c1.6,6,2.5,10.4,5.9,20.2l0,0c13.4,34.4,22.4,70.3,26.7,106.7c3.4,44-8.1,87.7-33.3,125
	c-15.1,23.3-37.4,42.4-67.7,48.1c-5.6,1-17.8,5.6-17.8,5.6s0.6,8,1.3,11.8c1.8,8.9,1.6,17.4,3.7,25.8c2.3,10.2,5.4,26.3,5.4,26.3
	s-18.5-2.6-30.7,3.2l-2-36.8c-1.1-26-2.3-23.9-3.8-30.2l0,0c-14-4.6-27.7-9.9-41.1-15.8c-41.3-20.5-64.9-53.7-78.5-94.9
	c-13.7-40-25.7-91.8-13.9-132.4c5.3-51.8-1.4-61.4,14.4-100.3c13.1-32.3,11.3-29,24.3-43.9c9.4-10.8,14.8-23,44.4-30
	c10.4-5.6,34.6-8.4,49.7-8.9 M388.1,326c-5.3,3.7-9.1,6-12.6,8.9l0,0c-23.2,19.2-49,35.6-76.7,48.8c-4.8,2.4-9.2,5.2-13.3,8.5
	c-2.4,1.9-5.7,4.8-5.7,7.2c-1.2,11.3-0.4,22.7,2.7,33.8c4.9-1.8,9.5-4.1,14-6.6c27.1-19.6,53.8-39.5,81.2-59.1
	C392.9,356.2,396,343.9,388.1,326L388.1,326z M280.2,378.3c35.8-12.8,63.8-35.8,92.8-57.1c16.8-12.5,17.5-14.6,5.8-34.4
	c-25.4,14-50.6,28-76,41.8c-29.2,15.8-29.2,15.8-25.4,47.4C277.9,376.5,278.7,376.8,280.2,378.3L280.2,378.3z M244.4,439.8
	c-2.3-15.8-5.7-21.1-7.8-31.5l-2.9-11.6c-1.1-3.6-10.7-11.8-13.7-14.3c-71-87.9-51.1-50.8-66.3-83.8c-0.8-1.5-2.7-2.5-4.6-4.1
	c-5.4,9.7-5.6,21.2-0.5,31.1c21.2,44.5,27.5,54.6,63.9,88.7c4.1,2.7,15.4,14.9,19.6,17.2L244.4,439.8z M391.5,376
	c-37.5,25.2-70.7,47.4-103.6,69.8c-3.1,2.3-5,5.6-5.4,9.3c0,7.9,1.2,15.8,2.3,26.8c8.4-4.4,14.4-7,19.7-10.4
	c23.9-16.1,47.6-32.5,71.3-49l0,0c2.2-1.5,3.7-3.6,4.5-6C383.9,404,387.3,391.5,391.5,376L391.5,376z M157.8,222.8
	c-11.5,17.7-4.3,47,3.2,61.5c17.8,34.1,40.9,65.3,68.6,92.9c3.9,3-2-0.5,2.5,1.8c1-19.7,6.4-30.9,5.4-56.2l-1.2-13.5
	c-6.5-5.3-9.8-5.3-13.6-12.5c-12.9-19.2-12.6-13-25.4-32.2c-2.6-3.6-15.3-19.4-18.2-23.1L157.8,222.8z M256,483.8
	c0-11.3,0-18.3-9.9-22.9l0,0c-7.1-3.7-13.4-8.4-18.9-13.8c-28.1-26.2-53.1-55.1-74.3-86.5c-2.6-3.6-5.4-7-8.4-10.3
	c0,19.9,4.6,42.1,9.5,48.4c22.8,28,49.8,52.7,80.1,73.6C241.1,476.4,248.4,480.3,256,483.8L256,483.8z M277.2,325.6
	c37.5-14.1,85.7-41.8,100.6-57.4l-6.9-19.8c-30.3,15.8-58.5,29.9-86.5,44.7l0,0c-3.7,2.5-6,6.4-6.7,10.5
	C277.1,310.8,276.9,318.2,277.2,325.6L277.2,325.6z M325,120.7c-1.6-2.4-41.1-20.5-46-17.7c-5.8,0.7-3.6,10.2-1.7,20.8
	c0.4,10.3,1.4,7.9,2.3,26.6c-1,3.9-0.5,15.7,1.9,18.2c4,4.1,22.3-12.4,27.5-16.9c0,0,26.8-13.9,25.1-21.2 M282.5,278.1L282.5,278.1
	c29.7-11.6,57.8-26.6,83.5-44.7l-7.9-22.1c-19.4,10.5-36.4,21-54.7,28.8C285.1,248.1,278.2,257.6,282.5,278.1L282.5,278.1z
	 M346.4,175.3c-16,8.3-43,21.1-57.6,29.1c-14.5,7.9-11.5,15.4-9.5,33.1c19.3-10.9,43.5-20.8,60.3-30.8
	C356.5,196.6,355.7,196.4,346.4,175.3L346.4,175.3z M243.5,281.2c5.8-15.8,9.5-27.7-3.5-38.8c-5.2-5-9.6-10.5-13-16.6
	c-8-12.6-18.5-16-27-26.5c-2.9-3.5-6.3-6.6-10.2-8.9l-25.6-15c-3.9,1.5-2.6,6.8-3.8,10.6c-1.2,3.8-0.3,6.8,1.9,10.2
	c11.3,19.9,53.8,45.3,65.7,65.2l0,0C232.8,268.3,238,274.9,243.5,281.2L243.5,281.2z M234.8,102.8c-18,2.2-19.9,1.9-0.8,12.2
	c7.2,3.9,13.4,9.5,17.9,16.3c18.1,27.3,17.4,24.8,16.1,28.7c-3.5-10.7-20.5-56.2-20.9-56.8 M249.8,233.8c3.5-4.6,5.4-10.2,5.3-15.9
	s-2-11.2-5.7-15.8c-6.4-10.4-18.9-20.7-26.1-30c-3.1-6.6-27-24.5-34.3-28.5c-5.3-2.9-13.9-5.3-16.6-3.3c-10.8,8-7.7,22.2-7.7,22.2
	s14.6,7.4,24.4,11.9c1.3,0.6,9.5,5.4,10.7,6.2l8.2,7.9c4.1,3.9,8.7,5.4,11.3,10.5C227.4,215.1,236.6,218.4,249.8,233.8L249.8,233.8z
	 M212.1,111.9c-12.7-1.2-23.2,10.5-24.4,16c-0.9,4.2,6.4,7.5,17.3,12.2c5.7,2.5,7.1,4.4,11.5,8.8c7.7,7.8,11.2,8.7,22.7,20.6
	c1.2,2.8,10.9,11,16.2,16.6c2-19.8,6.6-24,1.1-30.3c-4-4.5-10.1-14.6-22.4-25.8L212.1,111.9z M333.7,146
	c-10.7,10.5-14.8,6.8-21.8,14.8c-21.8,13.9-42.9,25.6-25.4,33.9l54.6-29.8L333.7,146z M289.8,495.2c31.4,0,66.1-24.1,74.8-50.3
	L289.8,495.2z M257,501.3l-80.1-55.4l0,0C195.9,472.6,224.1,492.2,257,501.3L257,501.3z"/>
<path d="M289.5,78.4"/>
</svg>
