<?xml version="1.0" encoding="utf-8"?>
<!-- Generator: Adobe Illustrator 25.4.1, SVG Export Plug-In . SVG Version: 6.00 Build 0)  -->
<svg version="1.1" id="Capa_2" xmlns="http://www.w3.org/2000/svg" xmlns:xlink="http://www.w3.org/1999/xlink" x="0px" y="0px"
	 viewBox="0 0 531 658" style="enable-background:new 0 0 531 658;" xml:space="preserve">
<path d="M334.3,66.3c6.1,2.9,10.5,18.8,12.3,27.4c2.3,10.9,11.4,26.9,11.9,38c0,0-0.3-6,9.8,35.3c1,4.2,5,7.6,7.3,11.6
	c1.5,2.6,2.4,19.1,1.5,21.1c-5.3,12.3,3.3,9.8,6.7,20.4l19.9,33.3c13.5,36.8-0.4,28.9,4,67.9c1.2,16.7,8.2,34.6,6.1,53.1
	c-1.7,15.8-12,30-18.1,45.1c-6.8,17-9.8,34.7-18.3,48.3c-15.1,24.9-36.5,43.9-66.8,50c-9.7,2-16,11.4-14.2,21.1
	c1.7,9.5,3.5,18.6,5.5,27.5c4.7,21.8,3.3,25.1-21.1,37.6l0,0c-9.7-25.4-9.3-53-14.9-78.8v0c-14-4.9-25.8-12.8-39.2-19.1
	c-24.4-12.9-41.8-20.6-55.5-42c-9.4-14.8-17.4-39.9-22.9-57.9c-5.5-17.3-11-34.4-12.4-52.4c-2-26.3,4.6-52,11.6-77.7
	c5.2-21.4,2.2-47,11.1-67.1c8.9-20.1,32.2-38.4,44.6-56.6c37.5-52.2,17-33.5,62-78.7c5.1-5.1,31.8-9.1,38.8-9.6 M314.3,426.6
	c35.8-13.7,46.3-32.2,75.4-55c16.9-13.3,6.3-68.8-5.4-90.1c-25.4,15-50.7,29.9-76,44.7C279,343.2,279,343.2,282.9,377
	c0.2,0.6,1.1,65.4,2.7,66.9L314.3,426.6z M256.9,454.4c-2.3-16.9-3.5-27.8-5.6-39h0c-1-3.8-2.9-78.2-5.8-80.8
	c-17.9-16.3-32.1-35.9-42.9-53.8c-10.3-17-14.4-34.4-25.1-54.8c-0.8-1.6-21.1,65.6-22.9,63.9c-5.4,10.4-5.6,22.7-0.5,33.2
	c21.1,47.6,54.3,86.4,90.7,122.9C248.5,449.1,252.6,451.9,256.9,454.4L256.9,454.4z M396.9,377c-37.5,27-70.7,50.7-103.7,74.6
	c-3.1,2.4-5,6-5.4,9.9c0,8.5,1.2,16.9,2.3,28.6c8.5-4.8,14.5-7.4,19.7-11.2c23.9-17.2,47.6-34.7,71.2-52.4v0
	c2.1-1.6,3.7-3.8,4.5-6.3C389.2,407,392.6,393.5,396.9,377L396.9,377z M260.3,479.7c0-12.1,1.3-14.6-8.6-19.5v0
	c-7.1-3.9-13.5-8.9-18.9-14.9c-28.1-27.9-47.7-59.1-68.9-92.6c-2.6-3.8-8.7-19.6-11.7-23.1c0,10.6-4.4,37.1,2.8,62.3
	c7.3,25.1,26.3,48.9,28.8,52.3c22.8,29.9,25.8,20.7,56.1,42.9c7,4.7,15.1,13,22.7,16.7L260.3,479.7z M282.5,323.1
	c37.4-15.1,85.7-44.6,100.6-61.4l-27.1-62c-6.5,1.9-6.5,1.9-34.5,17.8l-30.6,18.2c-3.6,2.7-7.2,59.2-7.8,63.7
	C282.4,307.3,282.2,315.2,282.5,323.1L282.5,323.1z M356.4,195.2c2.7-2.5-14.5-64.9-15-68.6c-1.6-13.3-0.3-12.7-7.1-23.7
	c-1.6-2.6-14.9-9.6-19.8-6.5c-1.7,1-10.8,3.6-11.7,5.3c-5.1,9.9-6.6,11.3-7.6,15.6c-2.4,11.2-14.4,116.8-5.9,109L356.4,195.2z
	 M186,201.2c-3.9,3.9-6.4,9.1-6.8,14.7c-0.5,5.5,1.1,11.1,4.3,15.6c17.4,28.8,35.1,57.5,53,86.1c2.1,3.3,6.4,5.3,12.5,10.1
	c0-11.1,0.9-18.4,0-25.4h0c-0.5-4.4,12.1-73.6,9.6-77.2c-9.3-13.2-9.1-2.8-17.9-16.6c-10.1-15.9-16.4-20.8-27-38.4L186,201.2z
	 M241,121.2c-27.8,25.1-27.2,31.3-17,51.3c18.7,36.6,31.7,37.6,37.2,47.5l18.1-83.7c0.5-1.8,4.2-11.8,3.2-13.4l1.7-10.3
	c-2-4.3,0.1-1.2-3.4-5.5c-0.2-0.3-5.4-4.9-11.1-3.9c-2.7,0.4-14,5.7-21.3,11.3 M295.2,504.5c31.4,0,66.2-25.9,74.8-53.7L295.2,504.5
	z M262.2,511l-80.1-59.1h0C201.1,480.3,229.4,501.2,262.2,511L262.2,511z"/>
<path d="M281.8,63.8"/>
</svg>
