<svg version="1.1" id="Capa_1" xmlns="http://www.w3.org/2000/svg" xmlns:xlink="http://www.w3.org/1999/xlink" x="0px" y="0px"
	 viewBox="0 0 461.7 461.7" style="enable-background:new 0 0 461.7 461.7;" xml:space="preserve">
<path d="M373.1,287.7c-2.5-4.9-0.3-11.7,2.2-19.5c3.9-12.4,11.6-38.6,0.1-54.7c-3.9-5.4-10.9,0.1-15.1-5c-15-18.2-29.1-35.5-30-65.6
	c-1.2-41.9-2.1-59.8-32.7-61.9c0.4,2.2-4.1-3.5-5.2-4.2c-1.8-1.2-3.7-2.5-5.6-3.7C268,60.7,248.6,48,244.8,22.4
	c-0.4-2.8-2.8-4.8-5.6-4.8s-5.2,2.1-5.6,4.8C229.8,48,210.3,60.7,191.4,73c-1.9,1.2-3.8,2.5-5.6,3.7c-1.1,0.7-5.7,3.6-6.8,4.2
	c-23.9-1.8-29.9,19.1-31.1,61.9c-0.8,30.1-15,47.3-30,65.6c-4.2,5.1-7.9-0.8-11.8,4.6c-11.5,16.1-7.1,42.6-3.2,55
	c2.5,7.8,4.6,14.6,2.2,19.5c-8.7,17.4-16.7,15-8.8,30.7c10,19.8,39.3,54.9,72.2,60.7c33.4,5.8,49.4,13.5,56.9,18.9
	c6.8,4.9,7.8,8.6,7.9,9.4c-0.1,0.5,0,41.3,0,41.3c0,3.1,2.5,5.7,5.7,5.7s5.7-2.5,5.7-5.7c0,0,0.1-40.8,0-41.3
	c0.1-0.8,1.1-4.5,7.9-9.4c7.6-5.4,23.6-13.1,56.9-18.9c32.9-5.8,64.4-41.5,74.4-61.2C392,302.1,381.9,305.1,373.1,287.7z M233,389.4
	c-12.3-9.2-33.3-16.5-62.5-21.6c-28.8-5-55.1-35.3-63.3-51.5c-9.4-18.6,5.4-18.3,8.1-23.7c4.5-9,1.4-18.7-1.5-28.1
	c-3.7-11.5-10.8-32.9-2.6-44.4c3.6-5.1,11.3,0.5,15.5-4.6c14.8-18,31.6-38.5,32.6-72.5c1-36-9.2-59.2,25-55.3c1-0.7,6.8-1,7.8-1.7
	c1.8-1.2,3.7-2.4,5.5-3.6c13.5-8.8,28.2-18.4,37.7-33.2v62.5c-5.3-1.7-14.6-5-25.5-9.8c-1.9-0.8-8.9-3.5-9.7-1.6
	c-0.8,1.9,4.8,7.6,6.7,8.5c13.5,2.3,23.8,9.3,28.6,10.8v39.6c-7.8-2.6-24.2-8.4-41.8-17.7c-1.8-1-10-5.8-7.3-1.7
	c-1,1.8,2,7.4,3.8,8.4c22.1,6.9,38.5,16.8,45.3,18.9v39.6c-10.1-3.3-34.6-12.1-57.5-26.7c-1.6-1-3.6-0.7-5.1,0.5
	c-1.1,0.9-2.6-1.1,2.3,6.7c26.3,5.8,51.8,24.8,60.2,27.5v39.6c-11.1-3.6-39.2-13.9-63.8-31c-1.7-1.2-9.7-7.9-10.9-6.2
	c-1.2,1.7,4.8,11.2,6.6,12.4c29.3,15,58.8,29.8,68.2,32.7V302c-13.2-4.3-51-18.1-77.8-41.9c-1.4-1.2-6-10.3-7.4-9.2
	c-1.7,1.3,0.6,12.5,1.7,14.1c0.3,0.5,0.7,0.8,1.2,1c35.4,19.2,71.3,40.5,82.4,43.9v39.8c-15.5-4.4-66-20.4-96.7-50.2
	c-1.7-1.6-7.9-10.3-5.8,0.7c0.3,1.8-3.1,2.5,0.6,4.8c40.8,25.1,88.6,49.1,101.9,52.6v33.7C234.6,390.7,233.9,390.1,233,389.4z
	 M372.6,318.2c-8.2,16.2-36,44.7-64.8,49.7c-36.7,6.4-55.4,15.5-64.8,23.5v-33.7c13.3-3.6,65.3-26.3,101.8-52.6c1.7-1.2,0,0,1.9-7.9
	c0.5-2.1-5.5,0.9-7,2.4c-30.7,29.8-81.2,45.8-96.7,50.2V310c11.1-3.4,51.7-22.4,82.8-44.1c1.7-1.2,9.2-13,7.9-14.6
	c-1.4-1.7-11.2,7.4-12.8,8.8c-26.9,23.8-64.7,37.6-77.9,42v-39.6c9.4-2.9,45.4-21.2,73.1-40.5c1-0.7,1.7-1.9,1.5-3.2
	c-0.4-3.3-8.6,3.2-10.8,4.8c-24.6,17.1-52.8,27.3-63.8,31v-39.6c8.4-2.6,31.5-16.7,60-27.4c1.9-0.7,5.3-5.9,3.3-6.5
	c-3-0.8-4.5,0.7-7.2-0.1c-22.5,14.1-46.3,22.7-56.2,25.9v-39.6c6.8-2.1,23.2-12.7,45.3-18.9c2.1-1.1,5.4-7,3.9-8.9
	c-1.1-1.4-5.9,1.4-7.5,2.3c-17.5,9.2-33.9,15-41.7,17.6v-39.6c5.2-2.7,16.8-9.9,28.5-10.8c1.8-0.1,4.7-5.3,4.3-7.1
	c-0.5-2.4,0.7-4.7-7.3,0.1c-10.9,4.8-20.2,8.1-25.5,9.8V49.3c9.5,14.8,24.2,24.4,37.7,33.2c1.9,1.2,3.7,2.4,5.5,3.6
	c1.1,0.7,5.5,1.5,6.5,2.2c31.8,0.6,25.4,18.8,26.4,54.8c0.9,34,17.7,54.4,32.6,72.5c4.2,5.1,14.4-0.5,18.1,4.6
	c8.2,11.5-1.5,32.8-5.2,44.3c-3,9.3-6,19-1.5,28.1C365.7,298.1,381.9,299.6,372.6,318.2z"/>
</svg>
